<svg width="20" height="20" viewBox="0 0 20 20" fill="none" xmlns="http://www.w3.org/2000/svg">
<mask id="path-1-outside-1_120_2369" maskUnits="userSpaceOnUse" x="0" y="0" width="20" height="20" fill="black">
<rect fill="white" width="20" height="20"/>
<path d="M2.54 0.679999V2.56H17.38V0.679999H2.54ZM3.96 5.98V7.54H8.12V5.98H3.96ZM3.52 8.28V9.84H8.14V8.28H3.52ZM11.74 8.28V9.84H16.42V8.28H11.74ZM11.74 5.98V7.54H15.94V5.98H11.74ZM3.46 13.5V15.3H15.44V13.5H3.46ZM2.72 16.3V18.22H15.6V16.3H2.72ZM8.76 1.4V10.06H11.1V1.4H8.76ZM3 10.66V12.54H14.44V18.86H16.82V10.66H3ZM1.18 3.38V7.96H3.3V5.22H16.62V7.96H18.84V3.38H1.18Z"/>
</mask>
<path d="M2.54 0.679999V2.56H17.38V0.679999H2.54ZM3.96 5.98V7.54H8.12V5.98H3.96ZM3.52 8.28V9.84H8.14V8.28H3.52ZM11.74 8.28V9.84H16.42V8.28H11.74ZM11.74 5.98V7.54H15.94V5.98H11.74ZM3.46 13.5V15.3H15.44V13.5H3.46ZM2.72 16.3V18.22H15.6V16.3H2.72ZM8.76 1.4V10.06H11.1V1.4H8.76ZM3 10.66V12.54H14.44V18.86H16.82V10.66H3ZM1.18 3.38V7.96H3.3V5.22H16.62V7.96H18.84V3.38H1.18Z" fill="#FAFCFC"/>
<path d="M2.54 0.679999V0.179999H2.04V0.679999H2.54ZM2.54 2.56H2.04V3.06H2.54V2.56ZM17.38 2.56V3.06H17.88V2.56H17.38ZM17.38 0.679999H17.88V0.179999H17.38V0.679999ZM3.96 5.98V5.48H3.46V5.98H3.96ZM3.96 7.54H3.46V8.04H3.96V7.54ZM8.12 7.54V8.04H8.62V7.54H8.12ZM8.12 5.98H8.62V5.48H8.12V5.98ZM3.52 8.28V7.78H3.02V8.28H3.52ZM3.52 9.84H3.02V10.34H3.52V9.84ZM8.14 9.84V10.34H8.64V9.84H8.14ZM8.14 8.28H8.64V7.78H8.14V8.28ZM11.74 8.28V7.78H11.24V8.28H11.74ZM11.74 9.84H11.24V10.34H11.74V9.84ZM16.42 9.84V10.34H16.92V9.84H16.42ZM16.42 8.28H16.92V7.78H16.42V8.28ZM11.74 5.98V5.48H11.24V5.98H11.74ZM11.74 7.54H11.24V8.04H11.74V7.54ZM15.94 7.54V8.04H16.44V7.54H15.94ZM15.94 5.98H16.44V5.48H15.94V5.98ZM3.46 13.5V13H2.96V13.5H3.46ZM3.46 15.3H2.96V15.8H3.46V15.3ZM15.44 15.3V15.8H15.94V15.3H15.44ZM15.44 13.5H15.94V13H15.44V13.5ZM2.72 16.3V15.8H2.22V16.3H2.72ZM2.72 18.22H2.22V18.72H2.72V18.22ZM15.6 18.22V18.72H16.1V18.22H15.6ZM15.6 16.3H16.1V15.8H15.6V16.3ZM8.76 1.4V0.899999H8.26V1.4H8.76ZM8.76 10.06H8.26V10.56H8.76V10.06ZM11.1 10.06V10.56H11.6V10.06H11.1ZM11.1 1.4H11.6V0.899999H11.1V1.4ZM3 10.66V10.16H2.5V10.66H3ZM3 12.54H2.5V13.04H3V12.54ZM14.44 12.54H14.94V12.04H14.44V12.54ZM14.44 18.86H13.94V19.36H14.44V18.86ZM16.82 18.86V19.36H17.32V18.86H16.82ZM16.82 10.66H17.32V10.16H16.82V10.66ZM1.18 3.38V2.88H0.68V3.38H1.18ZM1.18 7.96H0.68V8.46H1.18V7.96ZM3.3 7.96V8.46H3.8V7.96H3.3ZM3.3 5.22V4.72H2.8V5.22H3.3ZM16.62 5.22H17.12V4.72H16.62V5.22ZM16.62 7.96H16.12V8.46H16.62V7.96ZM18.84 7.96V8.46H19.34V7.96H18.84ZM18.84 3.38H19.34V2.88H18.84V3.38ZM2.04 0.679999V2.56H3.04V0.679999H2.04ZM2.54 3.06H17.38V2.06H2.54V3.06ZM17.88 2.56V0.679999H16.88V2.56H17.88ZM17.38 0.179999H2.54V1.18H17.38V0.179999ZM3.46 5.98V7.54H4.46V5.98H3.46ZM3.96 8.04H8.12V7.04H3.96V8.04ZM8.62 7.54V5.98H7.62V7.54H8.62ZM8.12 5.48H3.96V6.48H8.12V5.48ZM3.02 8.28V9.84H4.02V8.28H3.02ZM3.52 10.34H8.14V9.34H3.52V10.34ZM8.64 9.84V8.28H7.64V9.84H8.64ZM8.14 7.78H3.52V8.78H8.14V7.78ZM11.24 8.28V9.84H12.24V8.28H11.24ZM11.74 10.34H16.42V9.34H11.74V10.34ZM16.92 9.84V8.28H15.92V9.84H16.92ZM16.42 7.78H11.74V8.78H16.42V7.78ZM11.24 5.98V7.54H12.24V5.98H11.24ZM11.74 8.04H15.94V7.04H11.74V8.04ZM16.44 7.54V5.98H15.44V7.54H16.44ZM15.94 5.48H11.74V6.48H15.94V5.48ZM2.96 13.5V15.3H3.96V13.5H2.96ZM3.46 15.8H15.44V14.8H3.46V15.8ZM15.94 15.3V13.5H14.94V15.3H15.94ZM15.44 13H3.46V14H15.44V13ZM2.22 16.3V18.22H3.22V16.3H2.22ZM2.72 18.72H15.6V17.72H2.72V18.72ZM16.1 18.22V16.3H15.1V18.22H16.1ZM15.6 15.8H2.72V16.8H15.6V15.8ZM8.26 1.4V10.06H9.26V1.4H8.26ZM8.76 10.56H11.1V9.56H8.76V10.56ZM11.6 10.06V1.4H10.6V10.06H11.6ZM11.1 0.899999H8.76V1.9H11.1V0.899999ZM2.5 10.66V12.54H3.5V10.66H2.5ZM3 13.04H14.44V12.04H3V13.04ZM13.94 12.54V18.86H14.94V12.54H13.94ZM14.44 19.36H16.82V18.36H14.44V19.36ZM17.32 18.86V10.66H16.32V18.86H17.32ZM16.82 10.16H3V11.16H16.82V10.16ZM0.68 3.38V7.96H1.68V3.38H0.68ZM1.18 8.46H3.3V7.46H1.18V8.46ZM3.8 7.96V5.22H2.8V7.96H3.8ZM3.3 5.72H16.62V4.72H3.3V5.72ZM16.12 5.22V7.96H17.12V5.22H16.12ZM16.62 8.46H18.84V7.46H16.62V8.46ZM19.34 7.96V3.38H18.34V7.96H19.34ZM18.84 2.88H1.18V3.88H18.84V2.88Z" fill="#0A0D16" mask="url(#path-1-outside-1_120_2369)"/>
</svg>
